Coordinates
version=1
nRows=8
nColumns=40
inDegrees=yes

Units are S.I. units (second, meters, Newtons, ...)
Angles are in degrees.

endheader
time	pelvis_tilt	pelvis_list	pelvis_rotation	pelvis_tx	pelvis_ty	pelvis_tz	hip_flexion_r	hip_adduction_r	hip_rotation_r	knee_angle_r	knee_angle_r_beta	ankle_angle_r	subtalar_angle_r	mtp_angle_r	hip_flexion_l	hip_adduction_l	hip_rotation_l	knee_angle_l	knee_angle_l_beta	ankle_angle_l	subtalar_angle_l	mtp_angle_l	lumbar_extension	lumbar_bending	lumbar_rotation	arm_flex_r	arm_add_r	arm_rot_r	elbow_flex_r	pro_sup_r	wrist_flex_r	wrist_dev_r	arm_flex_l	arm_add_l	arm_rot_l	elbow_flex_l	pro_sup_l	wrist_flex_l	wrist_dev_l
      1.34750000	     -4.84972176	     -7.35279793	      4.73841036	      0.98065533	      0.92793801	      0.47013166	     10.22546324	      6.96278808	    -15.54848697	     13.04345030	     13.04345030	     10.64454637	      1.39130067	     -3.38905752	     38.11019613	    -11.99340364	      4.10599308	     63.10305612	     63.10305612	     10.55861152	    -19.04292046	     15.35748658	    -10.89679328	      5.46386687	      1.46763287	     24.28183729	    -16.97708072	     -2.57281304	     60.40941628	     45.18751559	      0.00000000	      0.00000000	     -0.32712860	     -8.54156832	     -4.02311281	     31.69903497	     46.59575691	      0.00000000	      0.00000000
      1.35900000	     -5.02238015	     -7.36080513	      4.60403523	      0.97965487	      0.92773946	      0.47044279	      9.58734313	      7.08382467	    -15.51076487	     12.59884785	     12.59884785	     11.04057204	      1.95658086	     -3.25990984	     38.98002732	    -12.04588112	      3.50211069	     60.09958901	     60.09958901	     11.14210010	    -19.06085439	     16.85928515	    -10.90159503	      5.43934547	      1.64946331	     26.20156642	    -17.40439650	     -1.70543631	     63.23843436	     45.07773279	      0.00000000	      0.00000000	     -1.23823847	     -8.12450177	     -3.58855978	     29.85490771	     46.49783750	      0.00000000	      0.00000000
      1.37050000	     -5.24405198	     -7.28266422	      4.41412512	      0.97859147	      0.92742347	      0.47060201	      9.07496747	      7.09398037	    -15.28813110	     12.29915252	     12.29915252	     11.35830136	      2.17447853	     -3.29522637	     39.64261217	    -11.97467438	      2.83489561	     56.67225222	     56.67225222	     11.22924693	    -19.06263241	     17.31791605	    -10.84421833	      5.29421320	      2.04207973	     28.44860868	    -17.53583215	     -1.83304268	     64.66285455	     45.04659593	      0.00000000	      0.00000000	     -2.43743338	     -7.69569506	     -3.42807012	     29.14341714	     46.44951863	      0.00000000	      0.00000000
      1.38200000	     -5.32480510	     -7.28635527	      4.34024753	      0.97778460	      0.92720715	      0.47046539	      8.31442769	      7.15535074	    -15.47762323	     11.86257818	     11.86257818	     11.79431507	      3.03468863	     -3.04604344	     39.97484329	    -11.85322498	      2.34973829	     52.91631561	     52.91631561	     11.10744329	    -18.98704828	     17.41831072	    -10.97249058	      5.33057885	      1.91791458	     30.22412500	    -17.62511075	     -0.93399548	     68.34525719	     44.91880192	      0.00000000	      0.00000000	     -3.46808856	     -7.35986515	     -2.58297728	     27.39896748	     46.27836794	      0.00000000	      0.00000000
      1.39350000	     -5.49256910	     -7.23249190	      4.19749964	      0.97693083	      0.92674807	      0.47020873	      7.72864322	      7.15632178	    -15.31699254	     11.56302462	     11.56302462	     12.14637660	      3.31948372	     -3.05867635	     40.21605517	    -11.58908072	      1.93904622	     48.94969956	     48.94969956	     10.95458694	    -18.81380197	     17.62934834	    -10.96067094	      5.26636824	      1.87781194	     32.41264651	    -17.30758248	     -1.02931411	     70.17457209	     44.87611963	      0.00000000	      0.00000000	     -4.69809456	     -6.95889439	     -2.29061155	     26.64988343	     46.20423168	      0.00000000	      0.00000000
      1.40500000	     -5.67389468	     -7.19429759	      4.07679610	      0.97616389	      0.92615679	      0.46968771	      7.14410136	      7.13554415	    -15.32438492	     11.25487956	     11.25487956	     12.53549102	      3.81407903	     -3.06264126	     40.30717183	    -11.23368473	      1.70242237	     44.78821501	     44.78821501	     10.59898214	    -18.47983981	     17.43562902	    -10.94800162	      5.26760023	      1.71028800	     34.51708072	    -16.91025508	     -0.93379869	     72.40529317	     44.81456488	      0.00000000	      0.00000000	     -5.92514046	     -6.53775521	     -1.90793561	     25.89772483	     46.11270478	      0.00000000	      0.00000000
      1.41650000	     -5.85773471	     -7.22654347	      3.96469052	      0.97557048	      0.92534764	      0.46901350	      6.59568086	      7.11792844	    -15.71021763	     11.06454132	     11.06454132	     13.11207348	      4.93302639	     -2.75019266	     40.20604126	    -10.94321602	      1.50183395	     40.38054230	     40.38054230	      9.27842850	    -17.89075727	     14.59360496	    -10.92700087	      5.38949525	      1.96235841	     36.01264233	    -17.19763019	     -0.43982726	     75.90707208	     44.72121605	      0.00000000	      0.00000000	     -6.94517937	     -6.17565060	     -0.61191085	     25.26086800	     45.85015347	      0.00000000	      0.00000000
      1.42800000	     -6.00065337	     -7.25227529	      3.82099412	      0.97514560	      0.92453666	      0.46831598	      5.98500589	      7.14113486	    -15.73187215	     10.84398725	     10.84398725	     13.64576055	      5.52427699	     -2.42912581	     39.90521372	    -10.66807569	      1.31341458	     35.92662501	     35.92662501	      8.09231722	    -16.85985358	     12.13032641	    -10.92160552	      5.47050041	      2.08314726	     37.70498294	    -16.99106854	     -0.61315261	     78.38080868	     44.70208994	      0.00000000	      0.00000000	     -8.08805902	     -5.92244085	      1.09557916	     25.02522571	     45.51211926	      0.00000000	      0.00000000
